<?xml version="1.0" encoding="UTF-8"?>
<!DOCTYPE svg PUBLIC "-//W3C//DTD SVG 1.1//EN" "http://www.w3.org/Graphics/SVG/1.1/DTD/svg11.dtd">
<!-- Creator: CorelDRAW X5 -->
<svg xmlns="http://www.w3.org/2000/svg" xml:space="preserve" width="296.302mm" height="209.309mm" style="shape-rendering:geometricPrecision; text-rendering:geometricPrecision; image-rendering:optimizeQuality; fill-rule:evenodd; clip-rule:evenodd"
viewBox="0 0 29508 20845"
 xmlns:xlink="http://www.w3.org/1999/xlink">
 <defs>
  <style type="text/css">
   <![CDATA[
    .str0 {stroke:black;stroke-width:19.9176}
    .fil0 {fill:black}
   ]]>
  </style>
 </defs>
 <g id="Layer_x0020_1">
  <metadata id="CorelCorpID_0Corel-Layer"/>
  <path class="fil0" d="M2469 15282l0 70c281,105 1124,-1440 1616,-1897 948,-773 1756,-1651 2915,-2143 1581,-667 2107,597 1300,1159 -702,492 -1089,-70 -1370,-70 -316,316 -105,2705 -457,3407l105 0c913,-211 -246,-1159 1019,-2213 211,-176 211,-281 492,-386 281,-140 316,-176 527,-351 457,-316 702,-632 562,-1229 -105,-421 -457,-878 105,-1265 351,-246 1054,-281 1510,-281 1932,70 3969,948 6077,70 1019,-386 1545,-1089 2424,140 492,667 983,1581 1791,1897 386,105 1019,246 1300,527 316,316 527,1019 773,1054 70,-386 -351,-1124 -632,-1370 -386,-386 -808,-562 -1264,-808 -667,-386 -1264,-702 -1651,-1405 -211,-421 -105,-703 -140,-773 -246,70 -140,281 -562,176 -421,-422 492,-1721 843,-2072 527,-597 1300,-983 2072,-1124 983,-176 1826,-246 2424,632 246,386 211,738 702,878 948,281 386,176 878,738l-211 -738c386,-105 457,246 667,527l140 -105 -457 -632c211,-316 351,-667 140,-1019 -457,-632 -351,-70 -386,-1089 -421,35 -1300,948 -1616,808 -176,-281 351,-1089 246,-1370l-70 0c-351,246 -808,632 -1194,808 -878,386 -2459,-246 -4250,1791 -1405,1581 -1019,702 -2775,984 -1194,176 -2072,562 -3407,667 -2248,246 -4426,457 -6358,1756 -2037,1370 -2494,2389 -3829,4250z"/>
  <path class="fil0" d="M10618 15352c-70,-246 -843,-1089 -351,-2037 140,-316 386,-527 702,-667 562,-316 808,0 1124,-70 -35,-421 -1721,-878 -2318,386 -457,1054 492,2705 843,2389z"/>
  <path class="fil0" d="M27161 11910l0 -70c-1335,0 -1932,-1651 -3618,-1932 -281,-70 -1370,0 -1581,211 -386,316 527,70 1370,176 527,70 878,246 1335,527 492,281 1967,1440 2494,1089z"/>
 </g>
</svg>
