<?xml version="1.0" encoding="utf8" standalone="no"?>
<!DOCTYPE svg PUBLIC "-//W3C//DTD SVG 1.0//EN" "http://www.w3.org/TR/2001/REC-SVG-20010904/DTD/svg10.dtd">
<svg viewBox="0 0 875 753" xmlns="http://www.w3.org/2000/svg">
<title>Half labyrinth</title>
<g transform="matrix(.5,0,0,-.5,437.5,437.5)">
<path d="m-471.012-529.806c-65.253,0-126.403,31.832-163.831,85.284-91.224,130.282-140.157,285.477-140.157,444.522 0,428.021 346.979,775 775,775s775-346.979 775-775c0-91.5496-16.221-182.375-47.911-268.2655-57.985-157.1595-207.757-261.5405-375.272-261.5405z" fill="#fff"/>
<path d="m351.817-129.806c15.334,41.5599 23.183,85.5079 23.183,129.806 0,207.107-167.893,375-375,375s-375-167.893-375-375c0-76.957 23.677-152.051 67.818-215.091 23.542-33.621 36.17-73.671 36.17-114.715 0-110.457-89.543-200-200-200-65.253,0-126.403,31.832-163.831,85.284-91.224,130.282-140.157,285.477-140.157,444.522 0,428.021 346.979,775 775,775s775-346.979 775-775c0-91.5496-16.221-182.375-47.911-268.2655-57.985-157.1595-207.757-261.5405-375.272-261.5405-155.771,0-297.3741,90.43-362.8944,231.751-19.4392,41.878-75.5599,137.335-112.3936,174.04-32.986,32.8402-51.529,77.4691-51.529,124.015 0,96.6497 78.3503,175 175,175s175-78.3503 175-175c0-20.6724-3.663-41.1814-10.819-60.5761-8.178-22.1656-12.364-45.6049-12.364-69.2299 0-110.457 89.543-200 200-200 83.757,0 158.643,52.19 187.636,130.77 23.512,63.725 35.547,131.1122 35.547,199.036 0,317.564-257.436,575-575,575s-575-257.436-575-575c0-118.001 36.305-233.146 103.988-329.806" fill="none" stroke="#000" stroke-linecap="round" stroke-linejoin="round" stroke-width="100"/>
</g>
</svg>
