<?xml version="1.0"?><svg width="591.4939" height="1054.5392" xmlns="http://www.w3.org/2000/svg">
 <title>black spear</title>
 <metadata id="metadata3897">image/svg+xml</metadata>
 <g>
  <title>Layer 1</title>
  <g id="layer1">
   <g transform="matrix(0.97785 -0.476701 0.498168 0.935713 -205.421 180.811)" id="g4780">
    <rect ry="0.666575" rx="0.637852" y="210.653941" x="211.247238" height="780" width="20" id="rect4782" stroke-dashoffset="0" stroke-miterlimit="4" stroke-linejoin="round" stroke-linecap="round" stroke-width="1.7" stroke="#000000" fill-rule="nonzero" fill="#000000"/>
    <path id="path3846" d="m212.675797,238.511078c0,0 -30.000122,-24.88649 -38.571411,-44.999985c0.547012,-22.978333 12.75592,-144.454372 49.285706,-218.571444c36.5298,72.311522 44.786484,187.558352 43.571457,220.000017c-6.401489,24.292465 -37.142868,45.714294 -37.142868,45.714294l-17.142883,-2.142883z" stroke-width="1px" stroke="#000000" fill-rule="evenodd" fill="#000000"/>
    <path d="m212.675797,238.511078c0,0 16.428436,-25.600784 7.857147,-45.714279c6.975586,-22.978333 -18.672638,-139.454357 2.857147,-217.857149c36.5298,72.311522 44.786484,187.558352 43.571457,220.000017c-6.401489,24.292465 -37.142868,45.714294 -37.142868,45.714294l-17.142883,-2.142883z" id="path3848" stroke-width="1px" fill-rule="evenodd" fill="#000000"/>
   </g>
  </g>
 </g>
</svg>