<?xml version="1.0" encoding="utf-8"?>
<!-- Generator: Adobe Illustrator 16.0.0, SVG Export Plug-In . SVG Version: 6.00 Build 0)  -->
<!DOCTYPE svg PUBLIC "-//W3C//DTD SVG 1.1//EN" "http://www.w3.org/Graphics/SVG/1.1/DTD/svg11.dtd">
<svg version="1.1" id="Layer_6" xmlns="http://www.w3.org/2000/svg" xmlns:xlink="http://www.w3.org/1999/xlink" x="0px" y="0px"
	 width="100px" height="100px" viewBox="0 0 100 100" enable-background="new 0 0 100 100" xml:space="preserve">
<path d="M87.921,80.864c-1.208-1.207-2.88-1.664-4.44-1.374c-1.255-2.242-3.345-4.942-5.988-7.585
	c-2.289-2.289-4.62-4.162-6.66-5.438c2.385-2.723,4.094-5.349,4.813-7.312c0.996,0.359,1.973,0.273,2.575-0.329
	c0.973-0.973,0.602-2.923-0.829-4.354c-1.432-1.433-3.382-1.804-4.355-0.83c-0.603,0.603-0.688,1.578-0.328,2.575
	c-1.82,0.666-4.211,2.186-6.72,4.303L20.095,12.185l-9.476-1.559l1.736,9.299l48.043,46.211c-2.049,2.452-3.521,4.782-4.173,6.565
	c-0.996-0.36-1.973-0.274-2.575,0.328c-0.974,0.973-0.602,2.923,0.83,4.354c1.431,1.432,3.381,1.803,4.354,0.83
	c0.603-0.603,0.688-1.579,0.329-2.575c1.963-0.719,4.59-2.429,7.312-4.813c1.277,2.041,3.149,4.372,5.438,6.66
	c2.643,2.643,5.343,4.733,7.585,5.988c-0.29,1.561,0.167,3.232,1.374,4.439c1.947,1.947,5.103,1.947,7.05,0
	C89.868,85.967,89.868,82.811,87.921,80.864z M14.195,20.355l-1.031-5.139l2.647,3.522l44.207,44.208L14.195,20.355z"/>
</svg>
