<?xml version="1.0" encoding="iso-8859-1"?>
<!-- Generator: Adobe Illustrator 16.0.0, SVG Export Plug-In . SVG Version: 6.00 Build 0)  -->
<!DOCTYPE svg PUBLIC "-//W3C//DTD SVG 1.1//EN" "http://www.w3.org/Graphics/SVG/1.1/DTD/svg11.dtd">
<svg version="1.1" id="Capa_1" xmlns="http://www.w3.org/2000/svg" xmlns:xlink="http://www.w3.org/1999/xlink" x="0px" y="0px"
	 width="26.873px" height="29.056px" viewBox="0 0 26.873 29.056" style="enable-background:new 0 0 26.873 29.056;"
	 xml:space="preserve">
<path style="fill:#000000;" d="M13.437,16.085c-6.468,0-11.865-2.355-13.145-5.491C0.102,11.056,0,11.534,0,12.024
	c0,3.824,6.016,6.925,13.437,6.925c7.42,0,13.437-3.101,13.437-6.925c0-0.49-0.104-0.968-0.291-1.43
	C25.3,13.73,19.903,16.085,13.437,16.085z"/>
<path style="fill:#000000;" d="M13.437,21.06c-6.468,0-11.865-2.356-13.145-5.49C0.102,16.031,0,16.51,0,17.001
	c0,3.823,6.016,6.923,13.437,6.923c7.42,0,13.437-3.1,13.437-6.923c0-0.491-0.104-0.97-0.291-1.432
	C25.3,18.704,19.903,21.06,13.437,21.06z"/>
<path style="fill:#000000;" d="M13.437,26.192c-6.468,0-11.865-2.354-13.145-5.492C0.102,21.163,0,21.642,0,22.132
	c0,3.824,6.016,6.923,13.437,6.923c7.42,0,13.437-3.099,13.437-6.923c0-0.49-0.104-0.969-0.291-1.432
	C25.3,23.839,19.903,26.192,13.437,26.192z"/>
<ellipse style="fill:#000000;" cx="13.437" cy="6.923" rx="13.437" ry="6.923"/>
<g>
</g>
<g>
</g>
<g>
</g>
<g>
</g>
<g>
</g>
<g>
</g>
<g>
</g>
<g>
</g>
<g>
</g>
<g>
</g>
<g>
</g>
<g>
</g>
<g>
</g>
<g>
</g>
<g>
</g>
</svg>
