<?xml version="1.0" encoding="UTF-8" standalone="no"?>
<!-- Created with Inkscape (http://www.inkscape.org/) -->

<svg
   xmlns:dc="http://purl.org/dc/elements/1.1/"
   xmlns:cc="http://creativecommons.org/ns#"
   xmlns:rdf="http://www.w3.org/1999/02/22-rdf-syntax-ns#"
   xmlns:svg="http://www.w3.org/2000/svg"
   xmlns="http://www.w3.org/2000/svg"
   xmlns:sodipodi="http://sodipodi.sourceforge.net/DTD/sodipodi-0.dtd"
   xmlns:inkscape="http://www.inkscape.org/namespaces/inkscape"
   width="640px"
   height="480px"
   id="svg2849"
   version="1.1"
   inkscape:version="0.47 r22583"
   sodipodi:docname="Pictish Beast.svg">
  <title
     id="title2817">Pictish Beast</title>
  <defs
     id="defs2851" />
  <sodipodi:namedview
     id="base"
     pagecolor="#ffffff"
     bordercolor="#666666"
     borderopacity="1.0"
     inkscape:pageopacity="0.0"
     inkscape:pageshadow="2"
     inkscape:zoom="0.49166667"
     inkscape:cx="320"
     inkscape:cy="240"
     inkscape:current-layer="layer1"
     inkscape:document-units="px"
     showgrid="false"
     inkscape:window-width="697"
     inkscape:window-height="504"
     inkscape:window-x="50"
     inkscape:window-y="24"
     inkscape:window-maximized="0" />
  <metadata
     id="metadata2854">
    <rdf:RDF>
      <cc:Work
         rdf:about="">
        <dc:format>image/svg+xml</dc:format>
        <dc:type
           rdf:resource="http://purl.org/dc/dcmitype/StillImage" />
        <dc:title>Pictish Beast</dc:title>
        <cc:license
           rdf:resource="http://creativecommons.org/licenses/by-sa/3.0/" />
        <dc:description>An illustration of an archaeological &quot;Pictish Beast&quot; symbol from Scotland.</dc:description>
        <dc:identifier>http://commons.wikimedia.org/wiki/File:Pictish_Beast.svg</dc:identifier>
        <dc:rights>
          <cc:Agent>
            <dc:title>Creative Commons Attribution/Share-Alike License</dc:title>
          </cc:Agent>
        </dc:rights>
        <dc:publisher>
          <cc:Agent>
            <dc:title>Wikimedia Commons</dc:title>
          </cc:Agent>
        </dc:publisher>
      </cc:Work>
      <cc:License
         rdf:about="http://creativecommons.org/licenses/by-sa/3.0/">
        <cc:permits
           rdf:resource="http://creativecommons.org/ns#Reproduction" />
        <cc:permits
           rdf:resource="http://creativecommons.org/ns#Distribution" />
        <cc:requires
           rdf:resource="http://creativecommons.org/ns#Notice" />
        <cc:requires
           rdf:resource="http://creativecommons.org/ns#Attribution" />
        <cc:permits
           rdf:resource="http://creativecommons.org/ns#DerivativeWorks" />
        <cc:requires
           rdf:resource="http://creativecommons.org/ns#ShareAlike" />
      </cc:License>
    </rdf:RDF>
  </metadata>
  <g
     id="layer1"
     inkscape:label="Layer 1"
     inkscape:groupmode="layer">
    <g
       style="fill:#000000;stroke:none"
       transform="matrix(0.148855,0,0,-0.148855,33.466417,443.73734)"
       id="g2880">
      <path
         d="m 2135.3715,2513.8075 c -23.845,-58.4789 -67.3063,-120.233 28.3785,-187.3231 56.3053,-31.9807 117.8117,-43.7423 179.654,-50.2061 148.3647,-15.5071 298.1384,12.6058 446.596,28.7217 167.8243,0.064 340.6869,95.604 507.6175,93.5426 131.7466,15.5989 248.1539,-61.0562 320.5041,-155.1505 34.0862,-44.3304 48.6126,-110.6368 31.8521,-164.7087 -16.7606,-54.0718 -62.0241,-100.4852 -126.0167,-115.0012 -112.7782,74.484 -183.8589,202.5484 -327.957,226.3178 -143.511,41.4016 -299.447,25.8562 -449.5432,25.8981 -161.2474,0.045 -322.4631,-11.9809 -482.9568,-27.5524 -150.5283,-14.6046 -300.0804,-38.2787 -449.4883,-61.7168 C 1668.8785,2103.8614 1521.738,2088.0098 1380,2050 1247.7561,2004.371 1105.4751,1990.3421 973.92578,1942.6953 829.57103,1905.2137 708.68384,1818.8951 607.25,1710.625 451.38067,1723.7225 457.22995,1611.4467 416.59645,1535.2579 354.39323,1418.6252 382.97355,1272.7805 356.2527,1143.3262 340.74096,1068.1766 321.44518,993.70063 298.33244,920.53039 c -6.20398,-19.64055 -2.77195,-49.59315 -21.62721,-57.88289 -18.80408,-8.26724 -36.6884,25.27473 -57.11746,23.13138 -23.60764,-2.47683 -45.53708,-20.31072 -59.0193,-39.84749 -12.96075,-18.78113 -15.74758,-43.81748 -15.68386,-66.63651 0.0374,-13.38129 2.31276,-27.68344 9.41525,-39.02429 15.703,-25.07363 40.53547,-46.84208 68.5362,-56.39352 28.32819,-9.66314 62.6192,-9.85514 89.74966,2.78609 36.23032,16.88125 72.46901,41.86771 79.9436,89.37302 14.00337,32.44033 46.12129,149.9607 64.50527,194.95449 18.38398,44.99383 21.91734,84.76403 24.69477,-5.7665 1.07912,-35.17391 19.62888,-120.78874 0.77936,-176.53294 -7.05446,-20.86235 -31.05059,-32.35914 -40.32789,-52.3325 -6.77305,-14.58188 -12.38954,-31.21469 -10.20137,-47.1432 4.02779,-29.31967 29.10543,-89.47368 41.48235,-78.49849 -32.97335,6.76956 -40.29411,18.55927 -74.30597,22.41797 -33.99434,3.85671 -61.5025,1.85073 -90.85648,-5.85397 -29.42317,-7.72286 -54.52322,-22.92571 -82.21282,-39.6149 C 198.39694,570.97695 165.29036,537.24931 150,513 79.433369,396.29911 124.5831,213.4445 256,158 c 142.27354,-55.3359 289.55003,8.58732 397.81445,99.63477 103.67482,80.36896 169.4531,194.97178 229.81055,305.74023 47.00202,89.741 99.63098,188.98897 80.97615,294.5412 -8.89395,40.44613 -23.14966,38.54864 6.00758,67.55933 29.1573,29.01069 79.60687,48.7435 69.18757,122.60107 -6.1474,43.5759 -40.01631,86.2134 -47.61024,132.5386 -7.62533,46.5167 -24.64579,107.0207 2.81394,141.3848 32.6418,40.8491 77.4171,94.4375 140.2763,78 114.7447,3.6826 225.5391,-29.7426 340.3487,-33.25 194.285,-43.6255 397.9119,-7.7822 593.375,-42.75 20.8387,-18.3446 37.7394,-45.3584 49.1643,-75.9202 11.425,-30.5618 19.2526,-42.1304 18.1883,-74.667 -0.5321,-16.2683 -0.9392,-84.7392 -5.1703,-99.5807 -4.2311,-14.8416 -24.3517,-9.7588 -35.6282,-16.3647 -14.0355,-8.2221 -24.3156,-12.9459 -39.4524,-28.721 -15.1368,-15.7751 -18.1388,-25.8513 -22.9961,-45.24462 -4.1569,-16.59684 -0.021,-45.53566 10.5063,-56.24833 10.5269,-10.71268 58.6307,-28.45809 53.7614,-45.50671 -33.647,-20.81478 -66.7098,-37.40148 -93.3194,-64.18329 -28.8871,-29.0741 -55.3073,-70.85008 -69.0217,-101.75419 -13.7144,-30.90411 -21.3057,-62.43673 -15.6567,-96.02468 9.3281,-55.46291 36.5055,-129.73249 89.1925,-161.3858 59.0396,-35.46981 143.2525,-30.35959 206.5987,-3.32186 98.7861,42.16437 172.1376,160.87065 219.1426,236.23156 0.7947,-16.86318 4.7542,-35.92534 10.9593,-52.79308 6.8577,-18.64186 9.4422,-46.98698 28.5857,-52.2856 18.7273,-5.18345 37.3848,42.16091 50.2844,29.49112 12.8995,-12.66978 22.1288,-81.41876 52.5428,-91.29615 30.414,-9.87739 54.9291,-2.22544 84.0292,62.19743 C 2711.2848,698.58544 2696.6,845.21111 2787,958 c 73.8868,118.7557 194.8982,191.1792 332.5,214.125 138.2204,28.5628 245.6126,127.5133 313.0918,250.2832 74.5041,122.3086 76.3063,280.5271 190.6174,375.876 111.838,100.7354 135.3872,278.0814 83.5751,405.5668 -53.7923,91.3013 -156.4726,192.4078 -258.2097,221.149 -144.874,40.9275 -266.0358,10.1553 -392.4965,-31.9062 -147.3824,-36.8799 -302.0624,-52.6653 -455.2111,-62.237 -141.3005,-8.8313 -325.4446,-47.4435 -420.867,57.1432 -24.432,26.7784 -18.1575,74.9806 -4.7155,108.6454 10.7763,26.9885 35.6765,49.9347 62.7321,60.5414 32.0237,12.5543 80.5351,23.7967 103.1686,-2.1042 19.6299,-22.4636 8.9235,-66.0054 -10.1845,-88.9146 -21.0439,-25.2301 -67.5019,-47.5868 -94.3197,-28.6077 -8.2373,5.8296 -6.5715,21.6097 -1.3483,30.2442 11.6389,19.2408 67.4366,7.0524 61.0875,28.6246 -7.558,25.6797 -59.8867,7.3769 -79.5838,-10.7503 -17.315,-15.935 -30.7829,-51.2898 -15.215,-68.9355 32.2562,-36.5614 105.8319,-14.6633 145.6472,13.4781 35.6519,25.1988 72.8536,79.1177 54.8995,118.9132 -22.5328,49.9439 -103.5527,56.7909 -157.4813,47.1039 -44.9182,-8.0684 -92.084,-40.1719 -109.3153,-82.431 z M 2865,2170 c 124.7803,-5.5557 253.0492,8.9394 372,-45 21.4414,-12.8745 71.1011,-43.6482 110.3211,-76.3983 39.2199,-32.7502 68,-67.4768 90.186,-88.2572 44.3721,-41.5608 19.8638,-27.3367 -21.5071,-84.9695 -60.2021,-77.4141 28.1376,-108.271 83.2031,-122.4826 7.7597,-58.4503 -27.07,-126.9793 -50.5267,-187.2086 C 3425.4088,1505.9399 3393.7169,1445.0033 3360,1395 3320.8789,1323.0408 3252.7421,1269.2499 3182.3606,1240.7356 3111.979,1212.2212 3039.3526,1208.9833 2970,1185 2854.3454,1145.0047 2761.7709,1011.1255 2697.8462,907.98719 2621.8358,785.34946 2666.1976,649.74698 2593.8125,577.89062 2558.4212,715.39109 2595.2809,853.16989 2649,979 c 50.5306,97.533 88.4833,191.9038 175.8594,264.3125 106.5857,142.7164 -76.9464,29.4772 -102.4864,-47.6875 -74.234,-109.1181 -146.1432,-228.33611 -173.3886,-355.76562 -16.6897,-78.05939 -73.5614,-277.00239 -72.1094,-94.98438 8.7406,109.52691 71.1316,243.87342 113.125,355.125 47.6759,126.3058 141.3856,233.1426 247.0394,323.9097 15.7145,13.5003 51.1477,51.9904 73.8623,55.9559 22.7147,3.9655 27.4787,1.7349 49.9975,-1.0994 22.3718,-2.8158 54.6906,17.899 69.3765,30.979 14.6859,13.0801 19.4895,55.5128 28.6633,83.461 35.5455,108.2905 240.6587,186.472 102.1919,326.2969 -105.7111,97.4818 -244.4507,50.1939 -347.7247,-13.6867 C 2692.2711,1843.1511 2625.8921,1753.5422 2555.125,1640.5 2496.5683,1542.601 2450.6322,1440.6303 2400,1345 c -62.6613,-109.0479 -107.6372,-234.4827 -167.4941,-346.19141 -53.9753,-100.73197 -220.665,-54.67595 -129.9427,15.34041 12.2651,8.5281 52.1529,10.0991 60.3786,19.9834 8.2257,9.8842 5.9047,22.6226 7.531,34.173 2.2811,16.2008 1.7458,29.4114 3.0829,48.985 1.3371,19.5736 0.6008,39.7426 0.035,60.0714 -2.2651,81.3153 -48.9045,160.5431 -48.9045,160.5431 0,0 19.5669,7.9004 29.2372,12.1167 25.9209,11.3015 53.1375,20.3541 77.1302,35.3198 27.5367,17.1762 52.6387,38.4792 75.3391,61.6737 17.5459,17.9279 33.7658,36.6295 46.4051,59.2453 37.1568,66.4855 18.8594,192.2192 -40.5658,254.0457 -41.3124,42.9818 -118.3029,52.4607 -175.3576,35.1717 -35.4879,-10.7537 -66.699,-43.6149 -78.5824,-78.7406 -7.5465,-22.3066 2.0801,-47.6153 9.2945,-70.0315 4.6705,-14.5119 12.6453,-27.9666 21.556,-40.3362 8.1366,-11.295 19.7989,-19.6342 28.7021,-30.3354 9.5067,-11.4267 57.8878,-20.438 26.2763,-36.0287 -115.3919,-56.9111 -240.0785,-79.2834 -364.7283,-83.4917 -130.2959,-4.3989 -267.1515,11.269 -386.2671,61.3613 -141.3192,31.8443 -301.4958,80.5541 -433.125,25.125 -29.2935,-12.3355 -53.56202,-29.9453 -73.01613,-51.7738 -19.45411,-21.8285 -34.09381,-47.8757 -44.1297,-77.0862 -10.03588,-29.2105 -15.46795,-61.5842 -16.50679,-96.0657 -1.03884,-34.4814 -8.31043,-92.3225 -0.77339,-129.9639 4.69283,-23.4368 -42.21752,-27.4353 -58.08113,-46.4985 -20.62532,-24.7852 -44.12975,-53.0375 -45.7291,-85.2424 -1.75373,-35.3134 15.44249,-73.17065 40.63538,-97.9786 30.28429,-29.82155 75.35038,-33.37434 118.5179,-47.02846 C 946.18951,872.70787 898.4523,751.35006 879.82812,689.57812 841.37176,545.25845 740.3107,424.45563 633.30664,322.80664 543.07082,239.45264 403.53148,139.76788 282,210 153.2116,273.12915 151.89403,476.90697 273,564 414.5768,665.81457 598.9938,473.44975 443.5,385.28125 c -20.58517,-14.04042 -36.79685,-12.43993 -50.14139,-4.20727 -13.34454,8.23266 -23.82193,23.09749 -32.9385,35.58573 -9.11656,12.48823 -16.87231,22.59988 -24.77355,21.32618 C 327.74532,436.71219 305.45074,423.03669 310,391 c 6.6525,-46.84809 49.90778,-69.38729 80.68458,-76.55859 30.77681,-7.1713 63.32295,2.04175 91.30067,21.74752 27.97771,19.70577 51.38699,49.90426 63.89006,84.70383 12.50308,34.79958 -1.30983,69.10149 -9.94462,102.23344 -4.1528,15.93438 -11.0254,31.32885 -19.82374,45.24787 -8.37461,13.24867 -36.12687,27.66512 -30.80862,35.52157 2.97086,4.38871 34.90463,-9.93979 52.87083,-10.76171 15.79658,-0.72267 32.32002,-0.29472 47.15585,5.17815 18.7712,6.92462 37.71306,17.69015 49.62563,33.76495 12.83228,17.31586 17.70759,40.23 19.24173,61.72774 0.98708,13.8318 -1.98113,28.00181 -6.61502,41.07163 -5.79868,16.3551 -9.30841,40.20053 -25.94573,45.13142 -9.55422,2.83164 -22.6374,-4.47678 -26.61561,-13.61325 -8.11087,-18.62765 15.75054,-38.33551 16.6496,-58.63248 0.64042,-14.45807 -1.56089,-29.75034 -8.12071,-42.65052 -4.71294,-9.26819 -12.2142,-17.75376 -21.3241,-22.76583 -12.41807,-6.83214 -27.71776,-9.77483 -41.77214,-7.94151 -16.46974,2.1484 -34.35978,8.73689 -44.92573,21.55208 -10.6352,12.89919 -14.13456,31.87211 -12.675,48.52644 1.09234,12.46422 7.58043,24.55915 15.65857,34.11392 8.19623,9.69445 25.75659,10.09554 31.48811,21.42294 14.00245,27.67354 -6.64768,59.36258 -3.39801,92.98115 5.69803,58.9474 -6.83823,71.83169 -8.31511,107.86217 -3.69279,90.09107 -7.86496,180.56567 -1.35123,270.49677 5.1384,70.9429 13.05378,142.3899 31.80429,211.0027 10.9709,40.1452 0.4372,45.9819 46.76545,115.7626 59.7449,117.9145 141.41445,222.4484 267.375,276.375 109.29192,46.7904 235.9049,70.7039 351.125,111.5 133.158,33.2364 266.6173,73.4345 404,90 156.3612,24.7721 313.3449,46.4854 469,76 150.0605,22.6584 302.0447,37.4545 453.793,47.8184 107.871,7.3672 216.1917,14.9908 324.207,10.1816 z m 831.9058,-78.416 c 14.3569,-40.3765 -29.1949,-171.4939 -84.8163,-233.2097 -55.6214,-61.7159 -142.0968,-70.9359 -164.7482,-14.0349 22.005,45.0378 116.3861,60.5593 161.4517,106.7204 38.6223,39.5612 95.5901,100.5008 88.1128,140.5242 z M 3068.001,1939.6498 c 47.4282,-10.8714 105.8063,-75.5055 103.4898,-102.9488 -2.3164,-27.4432 -16.3353,-54.1387 -34.6935,-82.4839 -18.3583,-28.3452 -57.2382,-64.8441 -75.7052,-92.8407 -18.4671,-27.9966 -36.8809,-42.135 -48.8623,-67.064 -8.7133,-18.1292 -2.2874,-43.393 -15.8854,-58.2147 -9.358,-10.2001 -25.7523,-18.4314 -38.9748,-14.3352 -30.697,9.5097 -58.9485,46.6204 -55.8217,78.6042 3.2716,33.4654 49.1259,45.9323 73.2303,69.3763 54.9041,53.3998 178.7175,128.3695 30.2813,179.0196 C 2886.0918,1889.3573 2812.9194,1744.0413 2746,1661 2659.5784,1553.7581 2614.4853,1415.6096 2580.1719,1282.5469 2558.1581,1149.1652 2510.8428,1020.4192 2471,892 c -41.1173,-98.69724 -81.1179,-194.7918 -137.6891,-276.71795 -70.455,-102.03269 -205.6707,-172.87313 -299.4391,-120.1923 -70.1829,39.43005 -79.9632,169.99241 -39.75,238.20833 53.2443,90.32138 151.5921,168.99774 219.0344,61.5613 44.5177,-46.05445 19.6365,-111.13942 -23.8124,-147.71319 -21.7245,-18.28691 -48.0909,-29.446 -72.7453,-27.5346 -12.3272,0.9557 -21.72,8.36639 -25.6057,18.06168 -4.9039,12.23607 -1.5363,23.13453 7.6285,38.80385 43.8557,74.94963 -92.6398,-7.79563 -31.3229,-79.97151 135.5116,-102.25828 268.0982,120.79094 193.9047,212.16627 -9.9667,12.27482 -19.5455,31.25569 -33.43,42.92142 -18.9069,15.88556 -57.1495,24.38617 -65.4195,34.76614 8.997,9.05171 49.3739,25.49622 69.4143,44.23609 18.7522,17.53531 32.459,40.00858 45.6511,62.03357 33.5703,56.0475 61.0837,114.8015 84.3486,176.9178 41.1044,109.7473 109.6936,235.9617 169.7965,345.53 60.785,110.8116 131.8092,243.2322 239.9076,322.3001 84.3912,61.7274 194.6155,125.6335 296.5293,102.2728 z m -67.7349,-133.2059 c 51.8023,-28.0992 15.162,-41.4197 -30.2127,-93.4577 -12.3235,-14.1331 -29.9636,-29.8824 -46.3928,-43.1544 -18.3552,-14.8278 -47.6896,-28.1489 -58.032,-40.5374 -10.3425,-12.3884 -9.291,-36.8325 -5.6856,-54.8602 3.4772,-17.3867 16.7042,-28.4025 25.4106,-46.7311 -62.0323,-60.2488 -246.706,-236.4272 -267.2316,-278.024 13.6751,110.6774 90.3845,269.2185 165.1124,388.4147 34.7552,55.4369 73.056,114.1282 129.1403,147.8287 25.7876,15.4955 49.1442,41.5391 87.8914,20.5214 z M 2293.97,1713.4294 c 17.9877,-19.6558 35.3715,-42.9821 39.957,-69.2286 7.4998,-42.9277 -4.8159,-89.117 -23.089,-128.6787 -11.1178,-24.0702 -30.8443,-43.6593 -50.499,-61.4544 -23.2508,-21.051 -50.4697,-37.6991 -78.2588,-52.2426 -14.2646,-7.4654 -27.9994,-11.4054 -44.9315,-17.7219 -16.9322,-6.3165 -35.3476,-9.549 -55.7095,-8.6101 -239.6979,3.5662 -495.4076,13.272 -716.0017,51.1944 -134.6561,23.1488 -322.7176,64.7732 -402.47852,-77.6152 C 854.01163,1223.2432 1055.8777,1092.2693 970,975 c -20.26286,-16.81389 -37.23538,-18.15472 -57.38478,-19.31598 -24.86348,-1.43294 -50.82126,4.37069 -73.07975,15.54233 -18.00577,9.03718 -35.51063,22.34035 -45.40724,39.88845 -9.33079,16.5448 -16.2711,38.1523 -10.03363,56.0935 11.06363,31.8231 59.22188,37.5988 75.67974,66.997 14.05708,25.1097 16.02102,57.6011 14.99104,85.0186 -1.02997,27.4174 -2.76352,54.8632 -3.15748,82.265 -0.78791,54.8035 9.25511,109.5489 62.8921,164.0111 90.1669,72.3307 227.0461,66.7769 333.5,29.5 146.11,-27.8061 262.9386,-65.2015 411.9299,-74.7991 164.6926,-2.2382 404.2829,11.8775 527.3844,130.8948 17.4789,16.8989 -55.4524,42.7556 -76.2781,70.381 -10.3823,13.7722 -20.451,29.2003 -23.2646,46.2165 -3.1271,18.9127 -1.6599,40.3681 7.9465,56.9568 8.9624,15.4768 26.1093,25.4963 42.3986,32.8796 11.0514,5.0093 23.6067,7.2723 35.7356,6.9289 14.7484,-0.4175 29.4968,-4.7185 42.9075,-10.8702 21.1775,-9.7144 41.4805,-22.9705 57.2102,-40.1589 z M 560.62598,1628.6565 c -88.6558,-151.4834 -70.60875,-367.969 -115.62703,-570.5997 -10.06529,-45.3047 -28.98172,-70.51113 -48.1553,-130.63489 -19.17358,-60.12376 -26.16341,-108.48578 -56.73351,-153.76444 -11.91198,-17.64333 -27.17709,-35.98254 -47.30991,-42.90005 -20.81106,-7.15054 -45.68676,-3.93172 -65.8319,4.92288 -9.89508,4.34929 -18.54219,12.66052 -23.64612,22.18831 -7.52066,14.03922 -12.88536,31.98956 -7.91329,47.12028 4.47236,13.61002 16.62978,28.3491 30.8715,29.90087 20.60901,2.24555 32.84033,-37.69406 52.94399,-32.63276 36.316,9.14291 42.63036,62.35292 56.32593,97.208 36.0182,91.66597 47.97844,191.1951 65.52519,288.1078 17.22522,95.1368 -5.65396,133.9479 38.92447,287.4272 17.02025,49.993 35.8812,207.355 120.62598,153.6565 z"
         id="path2882"
         sodipodi:nodetypes="ccaccasccaaacccaaaaaaaaaacssaaacsascccccssascccsssassscassaacaacsscccccscsaaaaaaaaaaaaaaccssccacsssccccscsssssaccccscsasscaaasaaaaaasacsssssaaaccccscsssssssaacaaaaaaaaaaaaaaasaaacscccaacscaccsssaaaassaccsascssaccsacaassaacsasaccaascaaaascsccaaaaasscccsaaaaaaacssaaaaaaaaacc" />
      <path
         d="m 3196,1502 c -118.8734,-41.9248 -202.603,-218.0174 -45.125,-241.625 91.9597,-1.5483 188.358,305.3181 45.125,241.625 z m 34,-52 c -49.4945,-86.8463 -56.0914,77.331 0,0 z m -26,-65 c 15.5305,-125.077 -183.9158,-59.979 -73.125,21.625 23.2123,2.7421 69.4238,13.581 73.125,-21.625 z"
         id="path2884" />
      <path
         d="m 3120,1360 c 39.4415,-82.7903 95.428,84.0005 0,0 z"
         id="path2886" />
    </g>
  </g>
</svg>
