<?xml version="1.0" standalone="no"?>
<!DOCTYPE svg PUBLIC "-//W3C//DTD SVG 1.0//EN" "http://www.w3.org/TR/2001/REC-SVG-20010904/DTD/svg10.dtd">
<svg width="640" height="1200" viewBox="0 0 640 1200" xmlns="http://www.w3.org/2000/svg">
<title>Modern Neo-Pagan Spiral Goddess symbol</title>
<g stroke="none" transform="translate(0,1176.7) scale(1,-1)">
<path fill="#000000" d="M37.7295,1088.42
C37.7295,1108.63,42.1572,1131.38,52,1140.17
C62.0576,1149.39,76.459,1153.37,91.4492,1153.37
C108.378,1153.37,126.194,1148.33,139,1140.81
C149.28,1134.7,160.855,1125.41,162.233,1112.54
C159.153,1111.26,155.54,1109.58,150.161,1109.58
C148.806,1109.58,147.339,1109.68,145.74,1109.93
C135.304,1111.96,123.14,1118.25,105.048,1118.25
C87.8203,1118.25,72.2539,1110.97,72.2539,1093.22
C72.2539,1075.63,85.8047,1053.82,93.5,1042.67
C104.257,1026.73,117.264,1011.84,131.584,998
C144.968,983.247,231.256,912.946,259.208,912.946
C292.284,912.946,293.578,960.292,293.578,971.642
C293.578,1003.62,275.722,1009.21,275.722,1026.98
C275.722,1059.31,300.11,1075.75,320,1075.75
C339.89,1075.75,364.278,1059.31,364.278,1026.98
C364.278,1009.21,346.422,1003.62,346.422,971.642
C346.422,949.879,350.093,912.946,380.792,912.946
C409.45,912.946,497.781,985.733,508.417,998
C522.737,1011.84,535.743,1026.73,546.5,1042.67
C554.196,1053.82,567.746,1075.63,567.746,1093.22
C567.746,1110.97,552.178,1118.25,534.952,1118.25
C516.86,1118.25,504.696,1111.96,494.26,1109.93
C492.661,1109.68,491.194,1109.58,489.839,1109.58
C484.46,1109.58,480.846,1111.26,477.766,1112.54
C479.145,1125.41,490.72,1134.7,501,1140.81
C513.806,1148.33,531.622,1153.37,548.55,1153.37
C563.54,1153.37,577.942,1149.39,588,1140.17
C597.844,1131.38,602.27,1108.63,602.271,1088.42
C602.271,1061.34,591.27,1035.01,581.572,1015.67
C559.962,971.624,530.4,932.35,495.832,897.666
C473.076,874.608,446.764,854.832,425.836,830.416
C411.966,814.268,400.554,795.392,392.408,774.666
C383.98,753.018,377.99,729.434,377.99,712.872
C377.99,660.876,439.192,637.33,444.178,587.594
C445.068,579.042,445.438,569.864,445.438,560.415
C445.438,542.972,444.179,524.604,442.61,507.546
C441.28,494.19,439.822,481.778,438.79,471.666
C431.174,400.318,413.59,329.214,401.056,259.166
C396.784,235.61,393.93,211.89,391.468,188.166
C389.496,168.823,387.614,149.665,384.942,130.666
C381.588,104.699,378.008,74.0518,370.308,45.666
C365.664,29.877,354.676,7.76562,339.808,3.16504
C335.428,0.165039,325.38,0.165039,320,0
C314.62,0.165039,304.572,0.165039,300.192,3.16504
C285.324,7.76562,274.336,29.877,269.692,45.666
C261.992,74.0518,258.412,104.699,255.058,130.666
C252.386,149.665,250.504,168.823,248.532,188.166
C246.07,211.89,243.216,235.61,238.944,259.166
C226.41,329.214,208.824,400.318,201.21,471.666
C200.176,481.778,198.721,494.19,197.39,507.546
C195.821,524.605,194.562,542.976,194.562,560.421
C194.562,569.868,194.932,579.044,195.821,587.594
C200.808,637.33,262.01,660.876,262.01,712.872
C262.01,729.434,256.02,753.018,247.592,774.666
C239.446,795.392,228.034,814.268,214.166,830.416
C193.237,854.832,166.923,874.608,144.167,897.666
C109.6,932.35,80.0381,971.624,58.4277,1015.67
C48.7314,1035.01,37.7295,1061.34,37.7295,1088.42Z"/>
<path fill="#ffffff" d="M221,545
C220.52,535.963,221.349,525.51,223.231,516.659
C225.139,507.686,228.7,497.67,232.871,489.5
C237.099,481.219,243.219,472.351,249.45,465.45
C255.766,458.457,264.086,451.388,272,446.273
C280.018,441.09,290.018,436.36,299.106,433.435
C308.313,430.472,319.34,428.473,329,428
C348.602,427.04,345.567,445.041,329,446
C320.835,446.472,311.526,448.246,303.765,450.822
C296.122,453.359,287.722,457.426,281,461.861
C274.381,466.228,267.435,472.242,262.178,478.178
C257.004,484.021,251.939,491.513,248.459,498.5
C245.035,505.375,242.138,513.79,240.617,521.318
C239.122,528.724,238.52,537.459,239,545
C239.472,552.416,241.132,560.866,243.515,567.905
C245.858,574.826,249.594,582.425,253.656,588.5
C257.648,594.471,263.135,600.729,268.542,605.457
C273.855,610.104,280.661,614.641,287,617.746
C293.227,620.796,300.841,623.362,307.647,624.689
C314.331,625.991,322.207,626.48,329,626
C335.668,625.528,343.26,623.981,349.576,621.791
C355.774,619.641,362.573,616.238,368,612.55
C373.323,608.932,378.895,603.972,383.093,599.093
C387.211,594.309,391.221,588.191,393.951,582.5
C396.628,576.921,398.863,570.106,399.995,564.023
C401.105,558.062,401.481,551.044,401,545
C400.528,539.079,399.094,532.347,397.097,526.753
C395.142,521.276,392.07,515.278,388.755,510.5
C385.512,505.823,381.08,500.939,376.729,497.27
C372.474,493.681,367.043,490.198,362,487.842
C357.069,485.539,351.055,483.635,345.694,482.698
C340.455,481.781,334.296,481.518,329,482
C323.827,482.47,317.953,483.791,313.083,485.595
C308.328,487.356,303.13,490.097,299,493.038
C294.971,495.907,290.774,499.812,287.634,503.634
C284.573,507.36,281.617,512.104,279.636,516.5
C277.706,520.783,276.134,525.997,275.391,530.635
C274.667,535.152,274.517,540.451,275,545
C275.469,549.425,276.677,554.439,278.289,558.588
C279.855,562.62,282.264,567.018,284.832,570.5
C287.327,573.882,290.705,577.391,293.998,580.001
C297.194,582.535,301.251,584.963,305,586.569
C308.635,588.126,313.048,589.366,316.965,589.915
C320.759,590.447,325.199,590.483,329,590
C332.677,589.531,336.833,588.436,340.258,587.017
C343.569,585.646,347.167,583.567,350,581.373
C352.735,579.253,355.558,576.403,357.637,573.637
C359.643,570.971,361.544,567.601,362.774,564.5
C363.96,561.513,364.868,557.899,365.222,554.705
C365.562,551.634,365.485,548.052,365,545
C364.533,542.07,363.551,538.772,362.324,536.07
C361.148,533.481,359.401,530.683,357.578,528.5
C355.835,526.411,353.511,524.275,351.273,522.726
C349.137,521.247,346.454,519.873,344,519.019
C341.661,518.205,338.847,517.628,336.376,517.471
C334.027,517.322,331.302,517.511,329,518
C326.816,518.463,324.377,519.332,322.4,520.368
C320.531,521.348,318.532,522.764,317,524.215
C315.555,525.583,314.106,527.38,313.09,529.09
C312.136,530.696,311.289,532.693,310.813,534.5
C310.368,536.19,310.122,538.205,310.164,539.953
C310.203,541.581,310.506,543.448,311,545
C311.458,546.438,312.215,548.021,313.062,549.27
C313.843,550.422,314.929,551.622,316.009,552.5
C316.999,553.304,318.271,554.068,319.454,554.546
C320.53,554.98,321.843,555.301,323,555.392
C324.044,555.474,325.264,555.389,326.282,555.142
C327.194,554.921,328.208,554.504,329,554
C329.702,553.552,330.432,552.904,330.941,552.244
C331.389,551.663,331.793,550.9,332,550.196
C332.18,549.578,332.258,548.821,332.182,548.182
C332.114,547.619,331.901,546.979,331.598,546.5
C331.325,546.07,330.891,545.64,330.448,545.388
C330.033,545.152,329.477,545,329,545
C328.522,545,327.966,544.848,327.551,544.612
C327.109,544.36,326.674,543.929,326.402,543.5
C326.098,543.021,325.885,542.381,325.818,541.818
C325.741,541.178,325.819,540.421,326,539.804
C326.206,539.099,326.611,538.337,327.059,537.755
C327.567,537.095,328.297,536.447,329,536
C329.791,535.496,330.805,535.078,331.717,534.857
C332.736,534.611,333.955,534.526,335,534.607
C336.156,534.698,337.47,535.019,338.546,535.454
C339.728,535.932,341,536.696,341.99,537.5
C343.07,538.377,344.156,539.577,344.938,540.729
C345.785,541.979,346.542,543.561,347,545
C347.493,546.551,347.796,548.419,347.835,550.047
C347.877,551.794,347.631,553.809,347.186,555.5
C346.711,557.306,345.864,559.303,344.91,560.91
C343.894,562.62,342.444,564.417,341,565.784
C339.467,567.235,337.469,568.651,335.599,569.631
C333.623,570.667,331.183,571.536,329,572
C326.697,572.488,323.973,572.678,321.623,572.529
C319.152,572.372,316.338,571.794,314,570.98
C311.545,570.126,308.863,568.752,306.726,567.274
C304.488,565.725,302.165,563.589,300.421,561.5
C298.598,559.316,296.852,556.518,295.676,553.929
C294.448,551.227,293.466,547.93,293,545
C292.514,541.948,292.438,538.365,292.777,535.294
C293.131,532.1,294.039,528.487,295.225,525.5
C296.455,522.398,298.356,519.029,300.362,516.362
C302.442,513.597,305.265,510.746,308,508.627
C310.833,506.432,314.43,504.354,317.741,502.982
C321.166,501.563,325.322,500.468,329,500
C332.8,499.516,337.241,499.553,341.035,500.084
C344.951,500.633,349.365,501.873,353,503.43
C356.749,505.037,360.805,507.465,364.001,509.998
C367.295,512.608,370.673,516.118,373.167,519.5
C375.735,522.981,378.144,527.379,379.71,531.412
C381.322,535.56,382.53,540.575,383,545
C383.482,549.548,383.333,554.848,382.609,559.364
C381.865,564.003,380.293,569.217,378.363,573.5
C376.382,577.896,373.427,582.64,370.365,586.365
C367.225,590.187,363.029,594.092,359,596.961
C354.87,599.902,349.672,602.643,344.917,604.404
C340.046,606.208,334.173,607.529,329,608
C323.703,608.481,317.545,608.218,312.306,607.302
C306.945,606.364,300.931,604.461,296,602.157
C290.956,599.801,285.525,596.319,281.27,592.729
C276.92,589.06,272.488,584.176,269.244,579.5
C265.93,574.721,262.857,568.723,260.902,563.247
C258.905,557.653,257.471,550.92,257,545
C256.519,538.955,256.895,531.938,258.004,525.977
C259.136,519.893,261.371,513.079,264.048,507.5
C266.778,501.809,270.788,495.69,274.906,490.906
C279.105,486.028,284.676,481.068,290,477.45
C295.426,473.762,302.225,470.358,308.424,468.209
C314.74,466.019,322.331,464.471,329,464
C335.792,463.519,343.668,464.008,350.352,465.311
C357.158,466.637,364.772,469.203,371,472.253
C377.338,475.359,384.144,479.896,389.457,484.542
C394.864,489.27,400.352,495.529,404.344,501.5
C408.405,507.574,412.141,515.173,414.484,522.094
C416.867,529.133,418.527,537.583,419,545
C419.48,552.54,418.878,561.275,417.382,568.681
C415.861,576.21,412.964,584.625,409.54,591.5
C406.061,598.486,400.996,605.979,395.821,611.821
C390.564,617.757,383.618,623.772,377,628.138
C370.277,632.573,361.878,636.64,354.234,639.177
C346.473,641.754,337.164,643.527,329,644
C320.711,644.479,311.117,643.764,302.988,642.075
C294.738,640.361,285.522,637.132,278,633.334
C270.366,629.48,262.186,623.888,255.814,618.185
C249.35,612.399,242.808,604.766,238.067,597.5
C233.258,590.13,228.86,580.929,226.129,572.564
C223.359,564.08,221.472,553.912,221,545Z
M317,33
C317,31.3438,318.344,30,320,30
C321.656,30,323,31.3438,323,33
V395
C323,396.656,321.656,398,320,398
C318.344,398,317,396.656,317,395
V33Z
M333.86,803.418
C333.86,786.39,343.942,776.374,355.866,776.374
C369.937,776.374,378.944,789.15,378.944,805.046
C378.944,821.654,368.872,832.878,356.926,832.878
C344.229,832.878,333.86,820.354,333.86,803.418Z
M261.056,805.046
C261.056,789.15,270.066,776.374,284.134,776.374
C296.058,776.374,306.14,786.39,306.14,803.418
C306.14,820.354,295.771,832.878,283.074,832.878
C271.128,832.878,261.056,821.654,261.056,805.046Z
M352.052,794.824
C352.052,797.38,352.882,799.738,354.624,799.738
C355.862,799.738,357.27,798.642,357.271,795.979
C357.271,794.771,356.93,790.91,354.72,790.91
C352.138,790.91,352.052,793.464,352.052,794.824Z
M282.73,795.979
C282.73,798.642,284.138,799.738,285.376,799.738
C287.118,799.738,287.948,797.38,287.948,794.824
C287.948,793.146,287.668,790.91,285.28,790.91
C282.966,790.91,282.73,795.234,282.73,795.979Z"/>
</g>
</svg>
