<?xml version="1.0" encoding="utf-8"?>
<!-- Generator: Adobe Illustrator 16.0.0, SVG Export Plug-In . SVG Version: 6.00 Build 0)  -->
<!DOCTYPE svg PUBLIC "-//W3C//DTD SVG 1.1//EN" "http://www.w3.org/Graphics/SVG/1.1/DTD/svg11.dtd">
<svg version="1.1" id="Layer_6" xmlns="http://www.w3.org/2000/svg" xmlns:xlink="http://www.w3.org/1999/xlink" x="0px" y="0px"
	 width="100px" height="100px" viewBox="0 0 100 100" enable-background="new 0 0 100 100" xml:space="preserve">
<path d="M78.224,29.15c2.091,36.601-28.217,53.958-28.228,53.964v0.21c0,0-30.319-17.356-28.228-53.964
	c15.94-3.191,28.222-12.465,28.228-12.469l0.327-0.21C50.323,16.682,62.281,25.959,78.224,29.15z M50.862,90.173
	c-0.043,0.032-0.089,0.063-0.136,0.09c-0.231,0.133-0.49,0.202-0.748,0.202c-0.243,0-0.485-0.062-0.704-0.187
	c-0.372-0.213-9.206-5.333-17.845-15.857c-7.982-9.724-17.227-26.061-15.935-48.67c0.038-0.661,0.517-1.213,1.166-1.343
	C34.659,20.804,48.54,10.51,49.122,10.073c0.022-0.017,0.046-0.034,0.069-0.05l0.354-0.239c0.52-0.351,1.208-0.33,1.704,0.055
	c0.138,0.106,13.99,10.701,32.083,14.324c0.649,0.13,1.128,0.682,1.166,1.342C86.948,68.386,53.739,88.521,50.862,90.173z
	 M81.651,26.782c-15.829-3.431-28.012-11.618-31.313-13.999c-2.624,1.879-15.551,10.68-31.996,14.244
	c-1.558,37.315,26.699,57.107,31.646,60.276C54.736,84.354,83.269,64.985,81.651,26.782z"/>
</svg>
