<?xml version="1.0" encoding="utf-8"?>
<!-- Generator: Adobe Illustrator 16.0.0, SVG Export Plug-In . SVG Version: 6.00 Build 0)  -->
<!DOCTYPE svg PUBLIC "-//W3C//DTD SVG 1.1//EN" "http://www.w3.org/Graphics/SVG/1.1/DTD/svg11.dtd">
<svg version="1.1" id="Layer_1" xmlns="http://www.w3.org/2000/svg" xmlns:xlink="http://www.w3.org/1999/xlink" x="0px" y="0px"
	 width="100px" height="100px" viewBox="0 0 100 100" enable-background="new 0 0 100 100" xml:space="preserve">
<g>
	<path d="M59.215,38.683c0.427-0.04,0.777-0.345,0.88-0.759c0.102-0.414-0.072-0.847-0.433-1.078
		c-0.129-0.083-2.754-1.751-5.899-2.337l1.186-1.724c0.141-0.202,0.188-0.441,0.16-0.675c0.002-0.027,0.016-0.052,0.016-0.079
		c0-0.333-0.174-0.614-0.425-0.796l-1.069-1.779l1.596-0.238l1.709,1.632c0.188,0.183,0.438,0.277,0.689,0.277
		c0.008,0,0.014,0,0.021,0c0.552,0,1-0.448,1-1c0-0.123-0.022-0.241-0.063-0.35l-0.595-3.746c-0.053-0.332-0.268-0.614-0.572-0.753
		c-0.305-0.14-0.66-0.115-0.943,0.062l-0.471,0.294l-1.97-1.23c-0.159-0.1-0.343-0.152-0.53-0.152h-2.5v-6.625h0.25
		c0.553,0,1-0.448,1-1c0-0.552-0.447-1-1-1h-2.625c-0.552,0-1,0.448-1,1c0,0.552,0.448,1,1,1h0.375v6.625h-2.5
		c-0.188,0-0.371,0.053-0.53,0.152l-1.97,1.23l-0.47-0.294c-0.284-0.177-0.638-0.201-0.944-0.062
		c-0.305,0.139-0.521,0.422-0.573,0.753l-0.625,3.938c-0.067,0.425,0.144,0.844,0.523,1.042c0.379,0.199,0.845,0.134,1.155-0.163
		l1.709-1.632l1.596,0.238l-1.353,2.247c-0.202,0.336-0.189,0.759,0.033,1.082l1.184,1.724c-3.146,0.586-5.771,2.254-5.9,2.337
		c-0.359,0.23-0.532,0.664-0.431,1.078c0.101,0.415,0.453,0.719,0.878,0.759l5.233,0.494l-0.552,1.227
		c-0.032,0.07-0.055,0.146-0.07,0.222c-2.26,11.802,3.383,41.673,3.625,42.939c0.092,0.471,0.502,0.811,0.982,0.811
		s0.893-0.34,0.982-0.811c0.24-1.268,5.885-31.139,3.625-42.939c-0.017-0.077-0.039-0.151-0.07-0.222l-0.516-1.14
		c0.1-0.025,0.188-0.063,0.272-0.115L59.215,38.683z M48.853,29.203c0.025-0.044,0.042-0.092,0.062-0.139h2.163
		c0.021,0.047,0.034,0.095,0.063,0.139l1.101,1.828h-4.485L48.853,29.203z M45.173,27.255l1.61-1.006h6.428l1.608,1.006
		l-1.305,0.194c-0.182-0.229-0.451-0.386-0.771-0.386h-5.25c-0.331,0-0.61,0.172-0.792,0.42L45.173,27.255z M44.563,37.031
		c1.046-0.372,2.254-0.678,3.467-0.719c0.365-0.014,0.694-0.224,0.858-0.55c0.164-0.325,0.138-0.715-0.068-1.017l-1.178-1.715h4.707
		l-1.178,1.715c-0.207,0.301-0.232,0.691-0.066,1.017c0.162,0.326,0.492,0.537,0.857,0.55c1.207,0.042,2.416,0.348,3.461,0.72
		l-2.975,0.281h-4.904L44.563,37.031z M49.996,77.57c-1.549-9.367-4.231-27.985-2.664-36.457l0.811-1.802h3.708l0.813,1.802
		C54.228,49.585,51.545,68.203,49.996,77.57z"/>
</g>
</svg>
